<?xml version="1.0" encoding="UTF-8" standalone="no"?>
<!DOCTYPE svg PUBLIC "-//W3C//DTD SVG 1.1//EN"
 "http://www.w3.org/Graphics/SVG/1.1/DTD/svg11.dtd">
<!-- Generated by graphviz version 2.26.3 (20100126.1600)
 -->
<!-- Title: controllers_diagram Pages: 1 -->
<svg width="423pt" height="265pt"
 viewBox="0.00 0.00 423.00 265.00" xmlns="http://www.w3.org/2000/svg" xmlns:xlink="http://www.w3.org/1999/xlink">
<g id="graph1" class="graph" transform="scale(1 1) rotate(0) translate(4 261)">
<title>controllers_diagram</title>
<polygon fill="white" stroke="white" points="-4,5 -4,-261 420,-261 420,5 -4,5"/>
<!-- _diagram_info -->
<g id="node1" class="node"><title>_diagram_info</title>
<text text-anchor="start" x="207" y="-240.3" font-family="Times Roman,serif" font-size="13.00">Controllers diagram</text>
<text text-anchor="start" x="207" y="-223.3" font-family="Times Roman,serif" font-size="13.00">Date: Mar 27 2011 &#45; 22:22</text>
<text text-anchor="start" x="207" y="-206.3" font-family="Times Roman,serif" font-size="13.00">Migration version: 20110327143416</text>
<text text-anchor="start" x="207" y="-189.3" font-family="Times Roman,serif" font-size="13.00">Generated by RailRoady 1.0.2</text>
<text text-anchor="start" x="207" y="-172.3" font-family="Times Roman,serif" font-size="13.00">http://railroady.prestonlee.com</text>
</g>
<!-- ApplicationController -->
<g id="node2" class="node"><title>ApplicationController</title>
<polyline fill="none" stroke="black" points="13,-1.5 199,-1.5 "/>
<path fill="none" stroke="black" d="M199,-1.5C205,-1.5 211,-7.5 211,-13.5"/>
<polyline fill="none" stroke="black" points="211,-13.5 211,-109.5 "/>
<path fill="none" stroke="black" d="M211,-109.5C211,-115.5 205,-121.5 199,-121.5"/>
<polyline fill="none" stroke="black" points="199,-121.5 13,-121.5 "/>
<path fill="none" stroke="black" d="M13,-121.5C7,-121.5 1,-115.5 1,-109.5"/>
<polyline fill="none" stroke="black" points="1,-109.5 1,-13.5 "/>
<path fill="none" stroke="black" d="M1,-13.5C1,-7.5 7,-1.5 13,-1.5"/>
<text text-anchor="middle" x="106" y="-104.9" font-family="Times Roman,serif" font-size="14.00">ApplicationController</text>
<polyline fill="none" stroke="black" points="1,-95.5 211,-95.5 "/>
<text text-anchor="start" x="9" y="-78.9" font-family="Times Roman,serif" font-size="14.00">_one_time_conditions_valid_8?</text>
<polyline fill="none" stroke="black" points="1,-69.5 211,-69.5 "/>
<polyline fill="none" stroke="black" points="1,-45.5 211,-45.5 "/>
<text text-anchor="start" x="9" y="-28.9" font-family="Times Roman,serif" font-size="14.00">_layout</text>
<text text-anchor="start" x="9" y="-10.9" font-family="Times Roman,serif" font-size="14.00">_run_process_action_callbacks</text>
</g>
</g>
</svg>
