<?xml version="1.0" encoding="UTF-8" standalone="no"?>
<!DOCTYPE svg PUBLIC "-//W3C//DTD SVG 1.1//EN"
 "http://www.w3.org/Graphics/SVG/1.1/DTD/svg11.dtd">
<!-- Generated by graphviz version 2.26.3 (20100126.1600)
 -->
<!-- Title: models_diagram Pages: 1 -->
<svg width="917pt" height="408pt"
 viewBox="0.00 0.00 917.00 408.00" xmlns="http://www.w3.org/2000/svg" xmlns:xlink="http://www.w3.org/1999/xlink">
<g id="graph1" class="graph" transform="scale(1 1) rotate(0) translate(4 404)">
<title>models_diagram</title>
<polygon fill="white" stroke="white" points="-4,5 -4,-404 914,-404 914,5 -4,5"/>
<!-- _diagram_info -->
<g id="node1" class="node"><title>_diagram_info</title>
<text text-anchor="start" x="7.5" y="-383.8" font-family="Times Roman,serif" font-size="13.00">Models diagram</text>
<text text-anchor="start" x="7.5" y="-366.8" font-family="Times Roman,serif" font-size="13.00">Date: Mar 27 2011 &#45; 22:22</text>
<text text-anchor="start" x="7.5" y="-349.8" font-family="Times Roman,serif" font-size="13.00">Migration version: 20110327143416</text>
<text text-anchor="start" x="7.5" y="-332.8" font-family="Times Roman,serif" font-size="13.00">Generated by RailRoady 1.0.2</text>
<text text-anchor="start" x="7.5" y="-315.8" font-family="Times Roman,serif" font-size="13.00">http://railroady.prestonlee.com</text>
</g>
<!-- CarGroup -->
<g id="node2" class="node"><title>CarGroup</title>
<polyline fill="none" stroke="black" points="365.5,-318 438.5,-318 "/>
<path fill="none" stroke="black" d="M438.5,-318C444.5,-318 450.5,-324 450.5,-330"/>
<polyline fill="none" stroke="black" points="450.5,-330 450.5,-376 "/>
<path fill="none" stroke="black" d="M450.5,-376C450.5,-382 444.5,-388 438.5,-388"/>
<polyline fill="none" stroke="black" points="438.5,-388 365.5,-388 "/>
<path fill="none" stroke="black" d="M365.5,-388C359.5,-388 353.5,-382 353.5,-376"/>
<polyline fill="none" stroke="black" points="353.5,-376 353.5,-330 "/>
<path fill="none" stroke="black" d="M353.5,-330C353.5,-324 359.5,-318 365.5,-318"/>
<text text-anchor="middle" x="402" y="-371.4" font-family="Times Roman,serif" font-size="14.00">CarGroup</text>
<polyline fill="none" stroke="black" points="353.5,-362 450.5,-362 "/>
<text text-anchor="start" x="361.5" y="-345.4" font-family="Times Roman,serif" font-size="14.00">name :string</text>
<text text-anchor="start" x="361.5" y="-327.4" font-family="Times Roman,serif" font-size="14.00">tag :string</text>
</g>
<!-- Rate -->
<g id="node6" class="node"><title>Rate</title>
<polyline fill="none" stroke="black" points="236.5,-107 443.5,-107 "/>
<path fill="none" stroke="black" d="M443.5,-107C449.5,-107 455.5,-113 455.5,-119"/>
<polyline fill="none" stroke="black" points="455.5,-119 455.5,-255 "/>
<path fill="none" stroke="black" d="M455.5,-255C455.5,-261 449.5,-267 443.5,-267"/>
<polyline fill="none" stroke="black" points="443.5,-267 236.5,-267 "/>
<path fill="none" stroke="black" d="M236.5,-267C230.5,-267 224.5,-261 224.5,-255"/>
<polyline fill="none" stroke="black" points="224.5,-255 224.5,-119 "/>
<path fill="none" stroke="black" d="M224.5,-119C224.5,-113 230.5,-107 236.5,-107"/>
<text text-anchor="middle" x="340" y="-250.4" font-family="Times Roman,serif" font-size="14.00">Rate</text>
<polyline fill="none" stroke="black" points="224.5,-241 455.5,-241 "/>
<text text-anchor="start" x="232.5" y="-224.4" font-family="Times Roman,serif" font-size="14.00">pick_up_time :integer</text>
<text text-anchor="start" x="232.5" y="-206.4" font-family="Times Roman,serif" font-size="14.00">price_day :float</text>
<text text-anchor="start" x="232.5" y="-188.4" font-family="Times Roman,serif" font-size="14.00">price_night :float</text>
<text text-anchor="start" x="232.5" y="-170.4" font-family="Times Roman,serif" font-size="14.00">min_price_day :float</text>
<text text-anchor="start" x="232.5" y="-152.4" font-family="Times Roman,serif" font-size="14.00">min_price_day_distance :integer</text>
<text text-anchor="start" x="232.5" y="-134.4" font-family="Times Roman,serif" font-size="14.00">min_price_night :float</text>
<text text-anchor="start" x="232.5" y="-116.4" font-family="Times Roman,serif" font-size="14.00">min_price_night_distance :integer</text>
</g>
<!-- CarGroup&#45;&gt;Rate -->
<g id="edge4" class="edge"><title>CarGroup&#45;&gt;Rate</title>
<path fill="none" stroke="black" d="M386.034,-310.253C382.148,-299.848 377.846,-288.329 373.478,-276.634"/>
<ellipse fill="none" stroke="black" cx="387.452" cy="-314.048" rx="4.00001" ry="4.00001"/>
<polygon fill="black" stroke="black" points="373.466,-276.602 374.183,-265.66 371.717,-271.918 369.967,-267.234 369.967,-267.234 369.967,-267.234 371.717,-271.918 365.752,-268.809 373.466,-276.602 373.466,-276.602"/>
</g>
<!-- CarType -->
<g id="node9" class="node"><title>CarType</title>
<polyline fill="none" stroke="black" points="484.5,-161 557.5,-161 "/>
<path fill="none" stroke="black" d="M557.5,-161C563.5,-161 569.5,-167 569.5,-173"/>
<polyline fill="none" stroke="black" points="569.5,-173 569.5,-201 "/>
<path fill="none" stroke="black" d="M569.5,-201C569.5,-207 563.5,-213 557.5,-213"/>
<polyline fill="none" stroke="black" points="557.5,-213 484.5,-213 "/>
<path fill="none" stroke="black" d="M484.5,-213C478.5,-213 472.5,-207 472.5,-201"/>
<polyline fill="none" stroke="black" points="472.5,-201 472.5,-173 "/>
<path fill="none" stroke="black" d="M472.5,-173C472.5,-167 478.5,-161 484.5,-161"/>
<text text-anchor="middle" x="521" y="-196.4" font-family="Times Roman,serif" font-size="14.00">CarType</text>
<polyline fill="none" stroke="black" points="472.5,-187 569.5,-187 "/>
<text text-anchor="start" x="480.5" y="-170.4" font-family="Times Roman,serif" font-size="14.00">name :string</text>
</g>
<!-- CarGroup&#45;&gt;CarType -->
<g id="edge2" class="edge"><title>CarGroup&#45;&gt;CarType</title>
<path fill="none" stroke="black" d="M432.607,-311.335C442.659,-297.574 453.852,-282.163 464,-268 474.782,-252.952 486.576,-236.236 496.624,-221.915"/>
<ellipse fill="none" stroke="black" cx="430.135" cy="-314.716" rx="4.00002" ry="4.00002"/>
<polygon fill="black" stroke="black" points="496.891,-221.534 506.315,-215.927 499.76,-217.44 502.63,-213.345 502.63,-213.345 502.63,-213.345 499.76,-217.44 498.945,-210.762 496.891,-221.534 496.891,-221.534"/>
</g>
<!-- District -->
<g id="node3" class="node"><title>District</title>
<polyline fill="none" stroke="black" points="750,-318 854,-318 "/>
<path fill="none" stroke="black" d="M854,-318C860,-318 866,-324 866,-330"/>
<polyline fill="none" stroke="black" points="866,-330 866,-376 "/>
<path fill="none" stroke="black" d="M866,-376C866,-382 860,-388 854,-388"/>
<polyline fill="none" stroke="black" points="854,-388 750,-388 "/>
<path fill="none" stroke="black" d="M750,-388C744,-388 738,-382 738,-376"/>
<polyline fill="none" stroke="black" points="738,-376 738,-330 "/>
<path fill="none" stroke="black" d="M738,-330C738,-324 744,-318 750,-318"/>
<text text-anchor="middle" x="802" y="-371.4" font-family="Times Roman,serif" font-size="14.00">District</text>
<polyline fill="none" stroke="black" points="738,-362 866,-362 "/>
<text text-anchor="start" x="746" y="-345.4" font-family="Times Roman,serif" font-size="14.00">name :string</text>
<text text-anchor="start" x="746" y="-327.4" font-family="Times Roman,serif" font-size="14.00">sha1_hash :string</text>
</g>
<!-- Region -->
<g id="node8" class="node"><title>Region</title>
<polyline fill="none" stroke="black" points="599.5,-116 712.5,-116 "/>
<path fill="none" stroke="black" d="M712.5,-116C718.5,-116 724.5,-122 724.5,-128"/>
<polyline fill="none" stroke="black" points="724.5,-128 724.5,-246 "/>
<path fill="none" stroke="black" d="M724.5,-246C724.5,-252 718.5,-258 712.5,-258"/>
<polyline fill="none" stroke="black" points="712.5,-258 599.5,-258 "/>
<path fill="none" stroke="black" d="M599.5,-258C593.5,-258 587.5,-252 587.5,-246"/>
<polyline fill="none" stroke="black" points="587.5,-246 587.5,-128 "/>
<path fill="none" stroke="black" d="M587.5,-128C587.5,-122 593.5,-116 599.5,-116"/>
<text text-anchor="middle" x="656" y="-241.4" font-family="Times Roman,serif" font-size="14.00">Region</text>
<polyline fill="none" stroke="black" points="587.5,-232 724.5,-232 "/>
<text text-anchor="start" x="595.5" y="-215.4" font-family="Times Roman,serif" font-size="14.00">name :string</text>
<text text-anchor="start" x="595.5" y="-197.4" font-family="Times Roman,serif" font-size="14.00">area :integer</text>
<text text-anchor="start" x="595.5" y="-179.4" font-family="Times Roman,serif" font-size="14.00">population :integer</text>
<text text-anchor="start" x="595.5" y="-161.4" font-family="Times Roman,serif" font-size="14.00">sha1_hash :string</text>
<text text-anchor="start" x="595.5" y="-143.4" font-family="Times Roman,serif" font-size="14.00">url :string</text>
<text text-anchor="start" x="595.5" y="-125.4" font-family="Times Roman,serif" font-size="14.00">parsed :boolean</text>
</g>
<!-- District&#45;&gt;Region -->
<g id="edge6" class="edge"><title>District&#45;&gt;Region</title>
<path fill="none" stroke="black" d="M765.505,-311.506C753.266,-297.59 739.183,-281.578 725.281,-265.772"/>
<ellipse fill="none" stroke="black" cx="768.395" cy="-314.792" rx="4.00002" ry="4.00002"/>
<polygon fill="black" stroke="black" points="725.084,-265.547 721.859,-255.067 721.782,-261.793 718.48,-258.039 718.48,-258.039 718.48,-258.039 721.782,-261.793 715.101,-261.01 725.084,-265.547 725.084,-265.547"/>
</g>
<!-- Company -->
<g id="node4" class="node"><title>Company</title>
<polyline fill="none" stroke="black" points="479.5,-309 562.5,-309 "/>
<path fill="none" stroke="black" d="M562.5,-309C568.5,-309 574.5,-315 574.5,-321"/>
<polyline fill="none" stroke="black" points="574.5,-321 574.5,-385 "/>
<path fill="none" stroke="black" d="M574.5,-385C574.5,-391 568.5,-397 562.5,-397"/>
<polyline fill="none" stroke="black" points="562.5,-397 479.5,-397 "/>
<path fill="none" stroke="black" d="M479.5,-397C473.5,-397 467.5,-391 467.5,-385"/>
<polyline fill="none" stroke="black" points="467.5,-385 467.5,-321 "/>
<path fill="none" stroke="black" d="M467.5,-321C467.5,-315 473.5,-309 479.5,-309"/>
<text text-anchor="middle" x="521" y="-380.4" font-family="Times Roman,serif" font-size="14.00">Company</text>
<polyline fill="none" stroke="black" points="467.5,-371 574.5,-371 "/>
<text text-anchor="start" x="475.5" y="-354.4" font-family="Times Roman,serif" font-size="14.00">name :string</text>
<text text-anchor="start" x="475.5" y="-336.4" font-family="Times Roman,serif" font-size="14.00">site_url :string</text>
<text text-anchor="start" x="475.5" y="-318.4" font-family="Times Roman,serif" font-size="14.00">phones :string</text>
</g>
<!-- Company&#45;&gt;Rate -->
<g id="edge12" class="edge"><title>Company&#45;&gt;Rate</title>
<path fill="none" stroke="black" d="M466.951,-303.43C456.832,-294.149 445.982,-284.199 435.045,-274.168"/>
<ellipse fill="none" stroke="black" cx="470.023" cy="-306.247" rx="4.00002" ry="4.00002"/>
<polygon fill="black" stroke="black" points="434.836,-273.976 430.508,-263.901 431.151,-270.597 427.466,-267.217 427.466,-267.217 427.466,-267.217 431.151,-270.597 424.424,-270.534 434.836,-273.976 434.836,-273.976"/>
</g>
<!-- Company&#45;&gt;Region -->
<g id="edge8" class="edge"><title>Company&#45;&gt;Region</title>
<path fill="none" stroke="black" d="M563.196,-301.115C572.26,-289.97 582.035,-277.949 591.722,-266.038"/>
<polygon fill="black" stroke="black" points="563.133,-301.193 553.332,-306.112 559.978,-305.072 556.823,-308.951 556.823,-308.951 556.823,-308.951 559.978,-305.072 560.314,-311.79 563.133,-301.193 563.133,-301.193"/>
<polygon fill="black" stroke="black" points="591.757,-265.994 601.558,-261.075 594.912,-262.115 598.067,-258.236 598.067,-258.236 598.067,-258.236 594.912,-262.115 594.576,-255.397 591.757,-265.994 591.757,-265.994"/>
</g>
<!-- Company&#45;&gt;CarType -->
<g id="edge10" class="edge"><title>Company&#45;&gt;CarType</title>
<path fill="none" stroke="black" d="M521,-298.632C521,-273.942 521,-245.399 521,-223.355"/>
<polygon fill="black" stroke="black" points="521,-298.951 516.5,-308.951 521,-303.951 521,-308.951 521,-308.951 521,-308.951 521,-303.951 525.5,-308.951 521,-298.951 521,-298.951"/>
<polygon fill="black" stroke="black" points="521,-223.102 525.5,-213.101 521,-218.102 521,-213.102 521,-213.102 521,-213.102 521,-218.102 516.5,-213.102 521,-223.102 521,-223.102"/>
</g>
<!-- MetroStation -->
<g id="node5" class="node"><title>MetroStation</title>
<polyline fill="none" stroke="black" points="604,-318 708,-318 "/>
<path fill="none" stroke="black" d="M708,-318C714,-318 720,-324 720,-330"/>
<polyline fill="none" stroke="black" points="720,-330 720,-376 "/>
<path fill="none" stroke="black" d="M720,-376C720,-382 714,-388 708,-388"/>
<polyline fill="none" stroke="black" points="708,-388 604,-388 "/>
<path fill="none" stroke="black" d="M604,-388C598,-388 592,-382 592,-376"/>
<polyline fill="none" stroke="black" points="592,-376 592,-330 "/>
<path fill="none" stroke="black" d="M592,-330C592,-324 598,-318 604,-318"/>
<text text-anchor="middle" x="656" y="-371.4" font-family="Times Roman,serif" font-size="14.00">MetroStation</text>
<polyline fill="none" stroke="black" points="592,-362 720,-362 "/>
<text text-anchor="start" x="600" y="-345.4" font-family="Times Roman,serif" font-size="14.00">name :string</text>
<text text-anchor="start" x="600" y="-327.4" font-family="Times Roman,serif" font-size="14.00">sha1_hash :string</text>
</g>
<!-- MetroStation&#45;&gt;Region -->
<g id="edge14" class="edge"><title>MetroStation&#45;&gt;Region</title>
<path fill="none" stroke="black" d="M656,-307.584C656,-295.394 656,-281.832 656,-268.329"/>
<polygon fill="black" stroke="black" points="656,-307.796 651.5,-317.796 656,-312.796 656,-317.796 656,-317.796 656,-317.796 656,-312.796 660.5,-317.796 656,-307.796 656,-307.796"/>
<polygon fill="black" stroke="black" points="656,-268.039 660.5,-258.038 656,-263.039 656,-258.039 656,-258.039 656,-258.039 656,-263.039 651.5,-258.039 656,-268.039 656,-268.039"/>
</g>
<!-- Route -->
<g id="node7" class="node"><title>Route</title>
<polyline fill="none" stroke="black" points="243.5,-318 324.5,-318 "/>
<path fill="none" stroke="black" d="M324.5,-318C330.5,-318 336.5,-324 336.5,-330"/>
<polyline fill="none" stroke="black" points="336.5,-330 336.5,-376 "/>
<path fill="none" stroke="black" d="M336.5,-376C336.5,-382 330.5,-388 324.5,-388"/>
<polyline fill="none" stroke="black" points="324.5,-388 243.5,-388 "/>
<path fill="none" stroke="black" d="M243.5,-388C237.5,-388 231.5,-382 231.5,-376"/>
<polyline fill="none" stroke="black" points="231.5,-376 231.5,-330 "/>
<path fill="none" stroke="black" d="M231.5,-330C231.5,-324 237.5,-318 243.5,-318"/>
<text text-anchor="middle" x="284" y="-371.4" font-family="Times Roman,serif" font-size="14.00">Route</text>
<polyline fill="none" stroke="black" points="231.5,-362 336.5,-362 "/>
<text text-anchor="start" x="239.5" y="-345.4" font-family="Times Roman,serif" font-size="14.00">path :string</text>
<text text-anchor="start" x="239.5" y="-327.4" font-family="Times Roman,serif" font-size="14.00">distance :float</text>
</g>
<!-- Route&#45;&gt;Rate -->
<g id="edge16" class="edge"><title>Route&#45;&gt;Rate</title>
<path fill="none" stroke="black" d="M298.546,-309.883C301.997,-299.651 305.807,-288.359 309.676,-276.89"/>
<ellipse fill="none" stroke="black" cx="297.155" cy="-314.006" rx="4.00001" ry="4.00001"/>
<polygon fill="black" stroke="black" points="309.736,-276.71 317.197,-268.673 311.335,-271.972 312.933,-267.234 312.933,-267.234 312.933,-267.234 311.335,-271.972 308.669,-265.796 309.736,-276.71 309.736,-276.71"/>
</g>
<!-- Region&#45;&gt;Region -->
<g id="edge24" class="edge"><title>Region&#45;&gt;Region</title>
<path fill="none" stroke="black" d="M734.708,-205.559C772.452,-206.947 808,-200.761 808,-187 808,-173.239 772.452,-167.053 734.708,-168.441"/>
<polygon fill="black" stroke="black" points="734.546,-205.551 724.806,-200.513 729.553,-205.278 724.561,-205.006 724.561,-205.006 724.561,-205.006 729.553,-205.278 724.316,-209.499 734.546,-205.551 734.546,-205.551"/>
<polygon fill="black" stroke="black" points="734.546,-168.449 724.316,-164.501 729.553,-168.722 724.561,-168.994 724.561,-168.994 724.561,-168.994 729.553,-168.722 724.806,-173.487 734.546,-168.449 734.546,-168.449"/>
<text text-anchor="middle" x="849.5" y="-183.4" font-family="Times Roman,serif" font-size="14.00">from_regions</text>
</g>
<!-- Region&#45;&gt;Region -->
<g id="edge20" class="edge"><title>Region&#45;&gt;Region</title>
<path fill="none" stroke="black" d="M734.762,-193.378C739.293,-191.842 742,-189.716 742,-187 742,-184.284 739.293,-182.158 734.762,-180.622"/>
<polygon fill="black" stroke="black" points="734.603,-193.412 723.883,-191.104 729.714,-194.458 724.825,-195.505 724.825,-195.505 724.825,-195.505 729.714,-194.458 725.767,-199.905 734.603,-193.412 734.603,-193.412"/>
<polygon fill="black" stroke="black" points="734.603,-180.588 725.767,-174.095 729.714,-179.542 724.825,-178.495 724.825,-178.495 724.825,-178.495 729.714,-179.542 723.883,-182.896 734.603,-180.588 734.603,-180.588"/>
<text text-anchor="middle" x="775" y="-183.4" font-family="Times Roman,serif" font-size="14.00">to_regions</text>
</g>
<!-- RegionLink -->
<g id="node10" class="node"><title>RegionLink</title>
<polyline fill="none" stroke="black" points="624.5,-1 685.5,-1 "/>
<path fill="none" stroke="black" d="M685.5,-1C691.5,-1 697.5,-7 697.5,-13"/>
<polyline fill="none" stroke="black" points="697.5,-13 697.5,-39 "/>
<path fill="none" stroke="black" d="M697.5,-39C697.5,-45 691.5,-51 685.5,-51"/>
<polyline fill="none" stroke="black" points="685.5,-51 624.5,-51 "/>
<path fill="none" stroke="black" d="M624.5,-51C618.5,-51 612.5,-45 612.5,-39"/>
<polyline fill="none" stroke="black" points="612.5,-39 612.5,-13 "/>
<path fill="none" stroke="black" d="M612.5,-13C612.5,-7 618.5,-1 624.5,-1"/>
<text text-anchor="middle" x="655" y="-34.4" font-family="Times Roman,serif" font-size="14.00">RegionLink</text>
<polyline fill="none" stroke="black" points="612.5,-25 697.5,-25 "/>
</g>
<!-- Region&#45;&gt;RegionLink -->
<g id="edge22" class="edge"><title>Region&#45;&gt;RegionLink</title>
<path fill="none" stroke="black" d="M590.92,-108.696C587.388,-101.961 584.336,-95.0283 582,-88 579.476,-80.4085 578.065,-76.9656 582,-70 587.129,-60.9196 594.967,-53.5041 603.633,-47.525"/>
<ellipse fill="none" stroke="black" cx="592.988" cy="-112.425" rx="4.00002" ry="4.00002"/>
<polygon fill="black" stroke="black" points="603.648,-47.5155 614.515,-46.0439 607.891,-44.8703 612.134,-42.2251 612.134,-42.2251 612.134,-42.2251 607.891,-44.8703 609.754,-38.4064 603.648,-47.5155 603.648,-47.5155"/>
<text text-anchor="middle" x="641" y="-75.4" font-family="Times Roman,serif" font-size="14.00">from_regions_links</text>
</g>
<!-- Region&#45;&gt;RegionLink -->
<g id="edge18" class="edge"><title>Region&#45;&gt;RegionLink</title>
<path fill="none" stroke="black" d="M706.638,-107.97C709.585,-95.2198 709.444,-82.2046 704,-70 702.271,-66.1235 700.013,-62.446 697.416,-58.9913"/>
<ellipse fill="none" stroke="black" cx="705.504" cy="-112.014" rx="4.00001" ry="4.00001"/>
<polygon fill="black" stroke="black" points="697.356,-58.9221 694.238,-48.4087 694.092,-55.134 690.829,-51.3459 690.829,-51.3459 690.829,-51.3459 694.092,-55.134 687.42,-54.283 697.356,-58.9221 697.356,-58.9221"/>
<text text-anchor="middle" x="758" y="-75.4" font-family="Times Roman,serif" font-size="14.00">to_regions_links</text>
</g>
</g>
</svg>
