<?xml version="1.0" encoding="UTF-8" standalone="no"?>
<!DOCTYPE svg PUBLIC "-//W3C//DTD SVG 1.1//EN"
 "http://www.w3.org/Graphics/SVG/1.1/DTD/svg11.dtd">
<!-- Generated by graphviz version 2.26.3 (20100126.1600)
 -->
<!-- Title: models_diagram Pages: 1 -->
<svg width="877pt" height="270pt"
 viewBox="0.00 0.00 877.00 270.00" xmlns="http://www.w3.org/2000/svg" xmlns:xlink="http://www.w3.org/1999/xlink">
<g id="graph1" class="graph" transform="scale(1 1) rotate(0) translate(4 266)">
<title>models_diagram</title>
<polygon fill="white" stroke="white" points="-4,5 -4,-266 874,-266 874,5 -4,5"/>
<!-- _diagram_info -->
<g id="node1" class="node"><title>_diagram_info</title>
<text text-anchor="start" x="7.5" y="-245.8" font-family="Times Roman,serif" font-size="13.00">Models diagram</text>
<text text-anchor="start" x="7.5" y="-228.8" font-family="Times Roman,serif" font-size="13.00">Date: Mar 27 2011 &#45; 22:22</text>
<text text-anchor="start" x="7.5" y="-211.8" font-family="Times Roman,serif" font-size="13.00">Migration version: 20110327143416</text>
<text text-anchor="start" x="7.5" y="-194.8" font-family="Times Roman,serif" font-size="13.00">Generated by RailRoady 1.0.2</text>
<text text-anchor="start" x="7.5" y="-177.8" font-family="Times Roman,serif" font-size="13.00">http://railroady.prestonlee.com</text>
</g>
<!-- CarGroup -->
<g id="node2" class="node"><title>CarGroup</title>
<ellipse fill="none" stroke="black" cx="378" cy="-215" rx="53.9477" ry="18.3848"/>
<text text-anchor="middle" x="378" y="-211.4" font-family="Times Roman,serif" font-size="14.00">CarGroup</text>
</g>
<!-- Rate -->
<g id="node6" class="node"><title>Rate</title>
<ellipse fill="none" stroke="black" cx="378" cy="-111" rx="31.8198" ry="18.3848"/>
<text text-anchor="middle" x="378" y="-107.4" font-family="Times Roman,serif" font-size="14.00">Rate</text>
</g>
<!-- CarGroup&#45;&gt;Rate -->
<g id="edge4" class="edge"><title>CarGroup&#45;&gt;Rate</title>
<path fill="none" stroke="black" d="M378,-187.926C378,-173.224 378,-155.041 378,-140.044"/>
<ellipse fill="none" stroke="black" cx="378" cy="-192.407" rx="4" ry="4"/>
<polygon fill="black" stroke="black" points="378,-139.783 382.5,-129.783 378,-134.783 378,-129.783 378,-129.783 378,-129.783 378,-134.783 373.5,-129.783 378,-139.783 378,-139.783"/>
</g>
<!-- CarType -->
<g id="node9" class="node"><title>CarType</title>
<ellipse fill="none" stroke="black" cx="487" cy="-111" rx="48.0833" ry="18.3848"/>
<text text-anchor="middle" x="487" y="-107.4" font-family="Times Roman,serif" font-size="14.00">CarType</text>
</g>
<!-- CarGroup&#45;&gt;CarType -->
<g id="edge2" class="edge"><title>CarGroup&#45;&gt;CarType</title>
<path fill="none" stroke="black" d="M402.456,-191.666C420.05,-174.879 443.719,-152.295 461.539,-135.293"/>
<ellipse fill="none" stroke="black" cx="399.384" cy="-194.597" rx="4.00002" ry="4.00002"/>
<polygon fill="black" stroke="black" points="461.548,-135.285 471.889,-131.637 465.165,-131.833 468.783,-128.382 468.783,-128.382 468.783,-128.382 465.165,-131.833 465.676,-125.126 461.548,-135.285 461.548,-135.285"/>
</g>
<!-- District -->
<g id="node3" class="node"><title>District</title>
<ellipse fill="none" stroke="black" cx="769" cy="-215" rx="41.2167" ry="18.3848"/>
<text text-anchor="middle" x="769" y="-211.4" font-family="Times Roman,serif" font-size="14.00">District</text>
</g>
<!-- Region -->
<g id="node8" class="node"><title>Region</title>
<ellipse fill="none" stroke="black" cx="642" cy="-111" rx="41.9273" ry="18.3848"/>
<text text-anchor="middle" x="642" y="-107.4" font-family="Times Roman,serif" font-size="14.00">Region</text>
</g>
<!-- District&#45;&gt;Region -->
<g id="edge6" class="edge"><title>District&#45;&gt;Region</title>
<path fill="none" stroke="black" d="M745.816,-192.137C737.545,-184.27 728.035,-175.546 719,-168 704.412,-155.815 687.503,-143.15 673.254,-132.862"/>
<ellipse fill="none" stroke="black" cx="748.987" cy="-195.182" rx="4.00002" ry="4.00002"/>
<polygon fill="black" stroke="black" points="672.901,-132.609 667.388,-123.129 668.835,-129.699 664.769,-126.789 664.769,-126.789 664.769,-126.789 668.835,-129.699 662.15,-130.448 672.901,-132.609 672.901,-132.609"/>
</g>
<!-- Company -->
<g id="node4" class="node"><title>Company</title>
<ellipse fill="none" stroke="black" cx="503" cy="-215" rx="53.033" ry="18.3848"/>
<text text-anchor="middle" x="503" y="-211.4" font-family="Times Roman,serif" font-size="14.00">Company</text>
</g>
<!-- Company&#45;&gt;Rate -->
<g id="edge12" class="edge"><title>Company&#45;&gt;Rate</title>
<path fill="none" stroke="black" d="M476.202,-192.704C455.038,-175.096 425.657,-150.65 404.556,-133.095"/>
<ellipse fill="none" stroke="black" cx="479.284" cy="-195.268" rx="4.00002" ry="4.00002"/>
<polygon fill="black" stroke="black" points="404.317,-132.895 399.507,-123.04 400.473,-129.698 396.629,-126.5 396.629,-126.5 396.629,-126.5 400.473,-129.698 393.751,-129.959 404.317,-132.895 404.317,-132.895"/>
</g>
<!-- Company&#45;&gt;Region -->
<g id="edge8" class="edge"><title>Company&#45;&gt;Region</title>
<path fill="none" stroke="black" d="M533.438,-191.817C543.471,-184.205 554.696,-175.719 565,-168 580.433,-156.439 597.68,-143.659 611.933,-133.135"/>
<polygon fill="black" stroke="black" points="533.301,-191.921 522.616,-194.386 529.319,-194.945 525.338,-197.97 525.338,-197.97 525.338,-197.97 529.319,-194.945 528.06,-201.553 533.301,-191.921 533.301,-191.921"/>
<polygon fill="black" stroke="black" points="612.33,-132.841 623.049,-130.526 616.354,-129.873 620.377,-126.905 620.377,-126.905 620.377,-126.905 616.354,-129.873 617.706,-123.283 612.33,-132.841 612.33,-132.841"/>
</g>
<!-- Company&#45;&gt;CarType -->
<g id="edge10" class="edge"><title>Company&#45;&gt;CarType</title>
<path fill="none" stroke="black" d="M498.603,-186.419C496.369,-171.896 493.66,-154.293 491.423,-139.747"/>
<polygon fill="black" stroke="black" points="498.619,-186.523 495.692,-197.091 499.379,-191.465 500.14,-196.407 500.14,-196.407 500.14,-196.407 499.379,-191.465 504.587,-195.723 498.619,-186.523 498.619,-186.523"/>
<polygon fill="black" stroke="black" points="491.41,-139.667 494.337,-129.098 490.65,-134.725 489.89,-129.783 489.89,-129.783 489.89,-129.783 490.65,-134.725 485.442,-130.467 491.41,-139.667 491.41,-139.667"/>
</g>
<!-- MetroStation -->
<g id="node5" class="node"><title>MetroStation</title>
<ellipse fill="none" stroke="black" cx="642" cy="-215" rx="67.8823" ry="18.3848"/>
<text text-anchor="middle" x="642" y="-211.4" font-family="Times Roman,serif" font-size="14.00">MetroStation</text>
</g>
<!-- MetroStation&#45;&gt;Region -->
<g id="edge14" class="edge"><title>MetroStation&#45;&gt;Region</title>
<path fill="none" stroke="black" d="M642,-186.166C642,-171.816 642,-154.508 642,-140.119"/>
<polygon fill="black" stroke="black" points="642,-186.407 637.5,-196.407 642,-191.407 642,-196.407 642,-196.407 642,-196.407 642,-191.407 646.5,-196.407 642,-186.407 642,-186.407"/>
<polygon fill="black" stroke="black" points="642,-139.783 646.5,-129.783 642,-134.783 642,-129.783 642,-129.783 642,-129.783 642,-134.783 637.5,-129.783 642,-139.783 642,-139.783"/>
</g>
<!-- Route -->
<g id="node7" class="node"><title>Route</title>
<ellipse fill="none" stroke="black" cx="269" cy="-215" rx="36.977" ry="18.3848"/>
<text text-anchor="middle" x="269" y="-211.4" font-family="Times Roman,serif" font-size="14.00">Route</text>
</g>
<!-- Route&#45;&gt;Rate -->
<g id="edge16" class="edge"><title>Route&#45;&gt;Rate</title>
<path fill="none" stroke="black" d="M290.533,-192.446C298.16,-184.605 306.868,-175.82 315,-168 327.18,-156.288 341.076,-143.643 352.712,-133.246"/>
<ellipse fill="none" stroke="black" cx="287.72" cy="-195.351" rx="4.00002" ry="4.00002"/>
<polygon fill="black" stroke="black" points="352.885,-133.092 363.348,-129.809 356.622,-129.769 360.358,-126.447 360.358,-126.447 360.358,-126.447 356.622,-129.769 357.367,-123.084 352.885,-133.092 352.885,-133.092"/>
</g>
<!-- Region&#45;&gt;Region -->
<g id="edge24" class="edge"><title>Region&#45;&gt;Region</title>
<path fill="none" stroke="black" d="M682.583,-125.638C720.6,-131.542 768,-126.663 768,-111 768,-95.3372 720.6,-90.4578 682.583,-96.362"/>
<polygon fill="black" stroke="black" points="682.489,-125.621 673.477,-119.372 677.572,-124.709 672.656,-123.797 672.656,-123.797 672.656,-123.797 677.572,-124.709 671.836,-128.221 682.489,-125.621 682.489,-125.621"/>
<polygon fill="black" stroke="black" points="682.489,-96.3794 671.836,-93.7786 677.572,-97.2912 672.656,-98.2031 672.656,-98.2031 672.656,-98.2031 677.572,-97.2912 673.477,-102.628 682.489,-96.3794 682.489,-96.3794"/>
<text text-anchor="middle" x="809.5" y="-107.4" font-family="Times Roman,serif" font-size="14.00">from_regions</text>
</g>
<!-- Region&#45;&gt;Region -->
<g id="edge20" class="edge"><title>Region&#45;&gt;Region</title>
<path fill="none" stroke="black" d="M693.627,-113.905C698.745,-113.324 702,-112.355 702,-111 702,-109.645 698.745,-108.676 693.627,-108.095"/>
<polygon fill="black" stroke="black" points="693.484,-113.914 683.229,-110.028 688.493,-114.217 683.502,-114.52 683.502,-114.52 683.502,-114.52 688.493,-114.217 683.775,-119.012 693.484,-113.914 693.484,-113.914"/>
<polygon fill="black" stroke="black" points="693.484,-108.086 683.775,-102.988 688.493,-107.783 683.502,-107.48 683.502,-107.48 683.502,-107.48 688.493,-107.783 683.229,-111.972 693.484,-108.086 693.484,-108.086"/>
<text text-anchor="middle" x="735" y="-107.4" font-family="Times Roman,serif" font-size="14.00">to_regions</text>
</g>
<!-- RegionLink -->
<g id="node10" class="node"><title>RegionLink</title>
<ellipse fill="none" stroke="black" cx="641" cy="-19" rx="60.1041" ry="18.3848"/>
<text text-anchor="middle" x="641" y="-15.4" font-family="Times Roman,serif" font-size="14.00">RegionLink</text>
</g>
<!-- Region&#45;&gt;RegionLink -->
<g id="edge22" class="edge"><title>Region&#45;&gt;RegionLink</title>
<path fill="none" stroke="black" d="M597.671,-98.4182C586.018,-92.8751 574.814,-85.0252 568,-74 558.465,-58.572 571.996,-45.9568 589.897,-36.7181"/>
<ellipse fill="none" stroke="black" cx="601.68" cy="-100.151" rx="4.00002" ry="4.00002"/>
<polygon fill="black" stroke="black" points="589.905,-36.7141 600.869,-36.5282 594.429,-34.5853 598.954,-32.4564 598.954,-32.4564 598.954,-32.4564 594.429,-34.5853 597.038,-28.3846 589.905,-36.7141 589.905,-36.7141"/>
<text text-anchor="middle" x="627" y="-61.4" font-family="Times Roman,serif" font-size="14.00">from_regions_links</text>
</g>
<!-- Region&#45;&gt;RegionLink -->
<g id="edge18" class="edge"><title>Region&#45;&gt;RegionLink</title>
<path fill="none" stroke="black" d="M675.037,-91.619C687.206,-81.8299 696.591,-69.2353 690,-56 687.321,-50.6206 683.446,-45.8162 679.031,-41.5943"/>
<ellipse fill="none" stroke="black" cx="671.704" cy="-94.0892" rx="4.00002" ry="4.00002"/>
<polygon fill="black" stroke="black" points="678.874,-41.4624 674.098,-31.5911 675.041,-38.2515 671.208,-35.0406 671.208,-35.0406 671.208,-35.0406 675.041,-38.2515 668.318,-38.4902 678.874,-41.4624 678.874,-41.4624"/>
<text text-anchor="middle" x="742" y="-61.4" font-family="Times Roman,serif" font-size="14.00">to_regions_links</text>
</g>
</g>
</svg>
