<?xml version="1.0" encoding="UTF-8" standalone="no"?>
<!DOCTYPE svg PUBLIC "-//W3C//DTD SVG 1.1//EN"
 "http://www.w3.org/Graphics/SVG/1.1/DTD/svg11.dtd">
<!-- Generated by graphviz version 2.26.3 (20100126.1600)
 -->
<!-- Title: models_diagram Pages: 1 -->
<svg width="781pt" height="270pt"
 viewBox="0.00 0.00 781.00 270.00" xmlns="http://www.w3.org/2000/svg" xmlns:xlink="http://www.w3.org/1999/xlink">
<g id="graph1" class="graph" transform="scale(1 1) rotate(0) translate(4 266)">
<title>models_diagram</title>
<polygon fill="white" stroke="white" points="-4,5 -4,-266 778,-266 778,5 -4,5"/>
<!-- _diagram_info -->
<g id="node1" class="node"><title>_diagram_info</title>
<text text-anchor="start" x="7.5" y="-245.8" font-family="Times Roman,serif" font-size="13.00">Models diagram</text>
<text text-anchor="start" x="7.5" y="-228.8" font-family="Times Roman,serif" font-size="13.00">Date: Mar 25 2011 &#45; 23:19</text>
<text text-anchor="start" x="7.5" y="-211.8" font-family="Times Roman,serif" font-size="13.00">Migration version: 20110325161623</text>
<text text-anchor="start" x="7.5" y="-194.8" font-family="Times Roman,serif" font-size="13.00">Generated by RailRoady 1.0.2</text>
<text text-anchor="start" x="7.5" y="-177.8" font-family="Times Roman,serif" font-size="13.00">http://railroady.prestonlee.com</text>
</g>
<!-- District -->
<g id="node2" class="node"><title>District</title>
<ellipse fill="none" stroke="black" cx="273" cy="-215" rx="41.2167" ry="18.3848"/>
<text text-anchor="middle" x="273" y="-211.4" font-family="Times Roman,serif" font-size="14.00">District</text>
</g>
<!-- Region -->
<g id="node7" class="node"><title>Region</title>
<ellipse fill="none" stroke="black" cx="336" cy="-111" rx="41.9273" ry="18.3848"/>
<text text-anchor="middle" x="336" y="-107.4" font-family="Times Roman,serif" font-size="14.00">Region</text>
</g>
<!-- District&#45;&gt;Region -->
<g id="edge2" class="edge"><title>District&#45;&gt;Region</title>
<path fill="none" stroke="black" d="M288.287,-189.764C297.818,-174.03 310.071,-153.803 319.774,-137.786"/>
<ellipse fill="none" stroke="black" cx="286.046" cy="-193.463" rx="4.00002" ry="4.00002"/>
<polygon fill="black" stroke="black" points="319.971,-137.461 329.001,-131.239 322.561,-133.184 325.152,-128.908 325.152,-128.908 325.152,-128.908 322.561,-133.184 321.303,-126.576 319.971,-137.461 319.971,-137.461"/>
</g>
<!-- Company -->
<g id="node3" class="node"><title>Company</title>
<ellipse fill="none" stroke="black" cx="620" cy="-215" rx="53.033" ry="18.3848"/>
<text text-anchor="middle" x="620" y="-211.4" font-family="Times Roman,serif" font-size="14.00">Company</text>
</g>
<!-- Company&#45;&gt;Region -->
<g id="edge4" class="edge"><title>Company&#45;&gt;Region</title>
<path fill="none" stroke="black" d="M573.55,-197.99C519.286,-178.119 430.294,-145.53 378.013,-126.385"/>
<polygon fill="black" stroke="black" points="573.773,-198.072 581.616,-205.736 578.468,-199.791 583.163,-201.51 583.163,-201.51 583.163,-201.51 578.468,-199.791 584.711,-197.285 573.773,-198.072 573.773,-198.072"/>
<polygon fill="black" stroke="black" points="377.771,-126.297 369.929,-118.632 373.076,-124.577 368.381,-122.858 368.381,-122.858 368.381,-122.858 373.076,-124.577 366.834,-127.083 377.771,-126.297 377.771,-126.297"/>
</g>
<!-- CarType -->
<g id="node8" class="node"><title>CarType</title>
<ellipse fill="none" stroke="black" cx="629" cy="-111" rx="48.0833" ry="18.3848"/>
<text text-anchor="middle" x="629" y="-107.4" font-family="Times Roman,serif" font-size="14.00">CarType</text>
</g>
<!-- Company&#45;&gt;CarType -->
<g id="edge6" class="edge"><title>Company&#45;&gt;CarType</title>
<path fill="none" stroke="black" d="M622.473,-186.419C623.73,-171.896 625.253,-154.293 626.512,-139.747"/>
<polygon fill="black" stroke="black" points="622.471,-186.444 617.126,-196.019 622.04,-191.426 621.609,-196.407 621.609,-196.407 621.609,-196.407 622.04,-191.426 626.092,-196.795 622.471,-186.444 622.471,-186.444"/>
<polygon fill="black" stroke="black" points="626.512,-139.746 631.858,-130.171 626.943,-134.764 627.375,-129.783 627.375,-129.783 627.375,-129.783 626.943,-134.764 622.891,-129.395 626.512,-139.746 626.512,-139.746"/>
</g>
<!-- MetroStation -->
<g id="node4" class="node"><title>MetroStation</title>
<ellipse fill="none" stroke="black" cx="400" cy="-215" rx="67.8823" ry="18.3848"/>
<text text-anchor="middle" x="400" y="-211.4" font-family="Times Roman,serif" font-size="14.00">MetroStation</text>
</g>
<!-- MetroStation&#45;&gt;Region -->
<g id="edge8" class="edge"><title>MetroStation&#45;&gt;Region</title>
<path fill="none" stroke="black" d="M383.27,-187.814C373.744,-172.334 361.858,-153.02 352.389,-137.632"/>
<polygon fill="black" stroke="black" points="383.317,-187.89 384.726,-198.765 385.938,-192.149 388.558,-196.407 388.558,-196.407 388.558,-196.407 385.938,-192.149 392.391,-194.048 383.317,-187.89 383.317,-187.89"/>
<polygon fill="black" stroke="black" points="352.37,-137.6 350.961,-126.725 349.749,-133.342 347.129,-129.084 347.129,-129.084 347.129,-129.084 349.749,-133.342 343.296,-131.442 352.37,-137.6 352.37,-137.6"/>
</g>
<!-- Rate -->
<g id="node5" class="node"><title>Rate</title>
<ellipse fill="none" stroke="black" cx="736" cy="-111" rx="31.8198" ry="18.3848"/>
<text text-anchor="middle" x="736" y="-107.4" font-family="Times Roman,serif" font-size="14.00">Rate</text>
</g>
<!-- Route -->
<g id="node6" class="node"><title>Route</title>
<ellipse fill="none" stroke="black" cx="736" cy="-215" rx="36.977" ry="18.3848"/>
<text text-anchor="middle" x="736" y="-211.4" font-family="Times Roman,serif" font-size="14.00">Route</text>
</g>
<!-- Route&#45;&gt;Rate -->
<g id="edge10" class="edge"><title>Route&#45;&gt;Rate</title>
<path fill="none" stroke="black" d="M736,-187.926C736,-173.224 736,-155.041 736,-140.044"/>
<ellipse fill="none" stroke="black" cx="736" cy="-192.407" rx="4" ry="4"/>
<polygon fill="black" stroke="black" points="736,-139.783 740.5,-129.783 736,-134.783 736,-129.783 736,-129.783 736,-129.783 736,-134.783 731.5,-129.783 736,-139.783 736,-139.783"/>
</g>
<!-- Region&#45;&gt;Region -->
<g id="edge14" class="edge"><title>Region&#45;&gt;Region</title>
<path fill="none" stroke="black" d="M387.627,-113.905C392.745,-113.324 396,-112.355 396,-111 396,-109.645 392.745,-108.676 387.627,-108.095"/>
<polygon fill="black" stroke="black" points="387.484,-113.914 377.229,-110.028 382.493,-114.217 377.502,-114.52 377.502,-114.52 377.502,-114.52 382.493,-114.217 377.775,-119.012 387.484,-113.914 387.484,-113.914"/>
<polygon fill="black" stroke="black" points="387.484,-108.086 377.775,-102.988 382.493,-107.783 377.502,-107.48 377.502,-107.48 377.502,-107.48 382.493,-107.783 377.229,-111.972 387.484,-108.086 387.484,-108.086"/>
<text text-anchor="middle" x="429" y="-107.4" font-family="Times Roman,serif" font-size="14.00">to_regions</text>
</g>
<!-- Region&#45;&gt;Region -->
<g id="edge18" class="edge"><title>Region&#45;&gt;Region</title>
<path fill="none" stroke="black" d="M376.583,-125.638C414.6,-131.542 462,-126.663 462,-111 462,-95.3372 414.6,-90.4578 376.583,-96.362"/>
<polygon fill="black" stroke="black" points="376.489,-125.621 367.477,-119.372 371.572,-124.709 366.656,-123.797 366.656,-123.797 366.656,-123.797 371.572,-124.709 365.836,-128.221 376.489,-125.621 376.489,-125.621"/>
<polygon fill="black" stroke="black" points="376.489,-96.3794 365.836,-93.7786 371.572,-97.2912 366.656,-98.2031 366.656,-98.2031 366.656,-98.2031 371.572,-97.2912 367.477,-102.628 376.489,-96.3794 376.489,-96.3794"/>
<text text-anchor="middle" x="503.5" y="-107.4" font-family="Times Roman,serif" font-size="14.00">from_regions</text>
</g>
<!-- RegionLink -->
<g id="node9" class="node"><title>RegionLink</title>
<ellipse fill="none" stroke="black" cx="336" cy="-19" rx="60.1041" ry="18.3848"/>
<text text-anchor="middle" x="336" y="-15.4" font-family="Times Roman,serif" font-size="14.00">RegionLink</text>
</g>
<!-- Region&#45;&gt;RegionLink -->
<g id="edge12" class="edge"><title>Region&#45;&gt;RegionLink</title>
<path fill="none" stroke="black" d="M296.828,-94.7971C288.51,-89.4478 280.8,-82.5989 276,-74 268.528,-60.6143 278.164,-48.6966 291.749,-39.4065"/>
<ellipse fill="none" stroke="black" cx="300.455" cy="-96.9217" rx="4.00002" ry="4.00002"/>
<polygon fill="black" stroke="black" points="292.079,-39.2042 302.956,-37.807 296.34,-36.5881 300.601,-33.9721 300.601,-33.9721 300.601,-33.9721 296.34,-36.5881 298.247,-30.1371 292.079,-39.2042 292.079,-39.2042"/>
<text text-anchor="middle" x="326" y="-61.4" font-family="Times Roman,serif" font-size="14.00">to_regions_links</text>
</g>
<!-- Region&#45;&gt;RegionLink -->
<g id="edge16" class="edge"><title>Region&#45;&gt;RegionLink</title>
<path fill="none" stroke="black" d="M364.963,-89.8768C369.452,-85.1883 373.442,-79.8506 376,-74 379.205,-66.67 379.205,-63.33 376,-56 374.02,-51.4712 371.182,-47.2497 367.918,-43.3988"/>
<ellipse fill="none" stroke="black" cx="361.982" cy="-92.7049" rx="4.00002" ry="4.00002"/>
<polygon fill="black" stroke="black" points="367.731,-43.2059 363.988,-32.8985 364.246,-39.6204 360.761,-36.0349 360.761,-36.0349 360.761,-36.0349 364.246,-39.6204 357.534,-39.1713 367.731,-43.2059 367.731,-43.2059"/>
<text text-anchor="middle" x="438" y="-61.4" font-family="Times Roman,serif" font-size="14.00">from_regions_links</text>
</g>
</g>
</svg>
