<?xml version="1.0" encoding="UTF-8" standalone="no"?>
<!DOCTYPE svg PUBLIC "-//W3C//DTD SVG 1.1//EN"
 "http://www.w3.org/Graphics/SVG/1.1/DTD/svg11.dtd">
<!-- Generated by graphviz version 2.26.3 (20100126.1600)
 -->
<!-- Title: models_diagram Pages: 1 -->
<svg width="892pt" height="372pt"
 viewBox="0.00 0.00 892.00 372.00" xmlns="http://www.w3.org/2000/svg" xmlns:xlink="http://www.w3.org/1999/xlink">
<g id="graph1" class="graph" transform="scale(1 1) rotate(0) translate(4 368)">
<title>models_diagram</title>
<polygon fill="white" stroke="white" points="-4,5 -4,-368 889,-368 889,5 -4,5"/>
<!-- _diagram_info -->
<g id="node1" class="node"><title>_diagram_info</title>
<text text-anchor="start" x="7.5" y="-347.8" font-family="Times Roman,serif" font-size="13.00">Models diagram</text>
<text text-anchor="start" x="7.5" y="-330.8" font-family="Times Roman,serif" font-size="13.00">Date: Mar 25 2011 &#45; 23:19</text>
<text text-anchor="start" x="7.5" y="-313.8" font-family="Times Roman,serif" font-size="13.00">Migration version: 20110325161623</text>
<text text-anchor="start" x="7.5" y="-296.8" font-family="Times Roman,serif" font-size="13.00">Generated by RailRoady 1.0.2</text>
<text text-anchor="start" x="7.5" y="-279.8" font-family="Times Roman,serif" font-size="13.00">http://railroady.prestonlee.com</text>
</g>
<!-- District -->
<g id="node2" class="node"><title>District</title>
<polyline fill="none" stroke="black" points="243.5,-291 316.5,-291 "/>
<path fill="none" stroke="black" d="M316.5,-291C322.5,-291 328.5,-297 328.5,-303"/>
<polyline fill="none" stroke="black" points="328.5,-303 328.5,-331 "/>
<path fill="none" stroke="black" d="M328.5,-331C328.5,-337 322.5,-343 316.5,-343"/>
<polyline fill="none" stroke="black" points="316.5,-343 243.5,-343 "/>
<path fill="none" stroke="black" d="M243.5,-343C237.5,-343 231.5,-337 231.5,-331"/>
<polyline fill="none" stroke="black" points="231.5,-331 231.5,-303 "/>
<path fill="none" stroke="black" d="M231.5,-303C231.5,-297 237.5,-291 243.5,-291"/>
<text text-anchor="middle" x="280" y="-326.4" font-family="Times Roman,serif" font-size="14.00">District</text>
<polyline fill="none" stroke="black" points="231.5,-317 328.5,-317 "/>
<text text-anchor="start" x="239.5" y="-300.4" font-family="Times Roman,serif" font-size="14.00">name :string</text>
</g>
<!-- Region -->
<g id="node7" class="node"><title>Region</title>
<polyline fill="none" stroke="black" points="288.5,-107 401.5,-107 "/>
<path fill="none" stroke="black" d="M401.5,-107C407.5,-107 413.5,-113 413.5,-119"/>
<polyline fill="none" stroke="black" points="413.5,-119 413.5,-219 "/>
<path fill="none" stroke="black" d="M413.5,-219C413.5,-225 407.5,-231 401.5,-231"/>
<polyline fill="none" stroke="black" points="401.5,-231 288.5,-231 "/>
<path fill="none" stroke="black" d="M288.5,-231C282.5,-231 276.5,-225 276.5,-219"/>
<polyline fill="none" stroke="black" points="276.5,-219 276.5,-119 "/>
<path fill="none" stroke="black" d="M276.5,-119C276.5,-113 282.5,-107 288.5,-107"/>
<text text-anchor="middle" x="345" y="-214.4" font-family="Times Roman,serif" font-size="14.00">Region</text>
<polyline fill="none" stroke="black" points="276.5,-205 413.5,-205 "/>
<text text-anchor="start" x="284.5" y="-188.4" font-family="Times Roman,serif" font-size="14.00">name :string</text>
<text text-anchor="start" x="284.5" y="-170.4" font-family="Times Roman,serif" font-size="14.00">area :integer</text>
<text text-anchor="start" x="284.5" y="-152.4" font-family="Times Roman,serif" font-size="14.00">population :integer</text>
<text text-anchor="start" x="284.5" y="-134.4" font-family="Times Roman,serif" font-size="14.00">sha1_hash :string</text>
<text text-anchor="start" x="284.5" y="-116.4" font-family="Times Roman,serif" font-size="14.00">url :string</text>
</g>
<!-- District&#45;&gt;Region -->
<g id="edge2" class="edge"><title>District&#45;&gt;Region</title>
<path fill="none" stroke="black" d="M294.871,-283.141C300.481,-270.366 307.097,-255.301 313.651,-240.38"/>
<ellipse fill="none" stroke="black" cx="293.08" cy="-287.219" rx="4.00002" ry="4.00002"/>
<polygon fill="black" stroke="black" points="313.693,-240.285 321.834,-232.938 315.703,-235.707 317.714,-231.129 317.714,-231.129 317.714,-231.129 315.703,-235.707 313.594,-229.319 313.693,-240.285 313.693,-240.285"/>
</g>
<!-- Company -->
<g id="node3" class="node"><title>Company</title>
<polyline fill="none" stroke="black" points="595.5,-273 678.5,-273 "/>
<path fill="none" stroke="black" d="M678.5,-273C684.5,-273 690.5,-279 690.5,-285"/>
<polyline fill="none" stroke="black" points="690.5,-285 690.5,-349 "/>
<path fill="none" stroke="black" d="M690.5,-349C690.5,-355 684.5,-361 678.5,-361"/>
<polyline fill="none" stroke="black" points="678.5,-361 595.5,-361 "/>
<path fill="none" stroke="black" d="M595.5,-361C589.5,-361 583.5,-355 583.5,-349"/>
<polyline fill="none" stroke="black" points="583.5,-349 583.5,-285 "/>
<path fill="none" stroke="black" d="M583.5,-285C583.5,-279 589.5,-273 595.5,-273"/>
<text text-anchor="middle" x="637" y="-344.4" font-family="Times Roman,serif" font-size="14.00">Company</text>
<polyline fill="none" stroke="black" points="583.5,-335 690.5,-335 "/>
<text text-anchor="start" x="591.5" y="-318.4" font-family="Times Roman,serif" font-size="14.00">name :string</text>
<text text-anchor="start" x="591.5" y="-300.4" font-family="Times Roman,serif" font-size="14.00">site_url :string</text>
<text text-anchor="start" x="591.5" y="-282.4" font-family="Times Roman,serif" font-size="14.00">phone :string</text>
</g>
<!-- Company&#45;&gt;Region -->
<g id="edge4" class="edge"><title>Company&#45;&gt;Region</title>
<path fill="none" stroke="black" d="M574.238,-285.189C529.858,-262.695 470.07,-232.392 422.681,-208.372"/>
<polygon fill="black" stroke="black" points="574.523,-285.334 581.408,-293.868 578.983,-287.594 583.443,-289.855 583.443,-289.855 583.443,-289.855 578.983,-287.594 585.477,-285.841 574.523,-285.334 574.523,-285.334"/>
<polygon fill="black" stroke="black" points="422.6,-208.331 415.715,-199.797 418.14,-206.071 413.68,-203.81 413.68,-203.81 413.68,-203.81 418.14,-206.071 411.646,-207.824 422.6,-208.331 422.6,-208.331"/>
</g>
<!-- CarType -->
<g id="node8" class="node"><title>CarType</title>
<polyline fill="none" stroke="black" points="627.5,-143 700.5,-143 "/>
<path fill="none" stroke="black" d="M700.5,-143C706.5,-143 712.5,-149 712.5,-155"/>
<polyline fill="none" stroke="black" points="712.5,-155 712.5,-183 "/>
<path fill="none" stroke="black" d="M712.5,-183C712.5,-189 706.5,-195 700.5,-195"/>
<polyline fill="none" stroke="black" points="700.5,-195 627.5,-195 "/>
<path fill="none" stroke="black" d="M627.5,-195C621.5,-195 615.5,-189 615.5,-183"/>
<polyline fill="none" stroke="black" points="615.5,-183 615.5,-155 "/>
<path fill="none" stroke="black" d="M615.5,-155C615.5,-149 621.5,-143 627.5,-143"/>
<text text-anchor="middle" x="664" y="-178.4" font-family="Times Roman,serif" font-size="14.00">CarType</text>
<polyline fill="none" stroke="black" points="615.5,-169 712.5,-169 "/>
<text text-anchor="start" x="623.5" y="-152.4" font-family="Times Roman,serif" font-size="14.00">name :string</text>
</g>
<!-- Company&#45;&gt;CarType -->
<g id="edge6" class="edge"><title>Company&#45;&gt;CarType</title>
<path fill="none" stroke="black" d="M646.865,-262.926C650.366,-243.736 654.219,-222.615 657.383,-205.27"/>
<polygon fill="black" stroke="black" points="646.823,-263.158 640.601,-272.188 645.925,-268.077 645.028,-272.996 645.028,-272.996 645.028,-272.996 645.925,-268.077 649.455,-273.803 646.823,-263.158 646.823,-263.158"/>
<polygon fill="black" stroke="black" points="657.46,-204.846 663.682,-195.816 658.358,-199.927 659.255,-195.009 659.255,-195.009 659.255,-195.009 658.358,-199.927 654.828,-194.201 657.46,-204.846 657.46,-204.846"/>
</g>
<!-- MetroStation -->
<g id="node4" class="node"><title>MetroStation</title>
<polyline fill="none" stroke="black" points="358,-273 462,-273 "/>
<path fill="none" stroke="black" d="M462,-273C468,-273 474,-279 474,-285"/>
<polyline fill="none" stroke="black" points="474,-285 474,-349 "/>
<path fill="none" stroke="black" d="M474,-349C474,-355 468,-361 462,-361"/>
<polyline fill="none" stroke="black" points="462,-361 358,-361 "/>
<path fill="none" stroke="black" d="M358,-361C352,-361 346,-355 346,-349"/>
<polyline fill="none" stroke="black" points="346,-349 346,-285 "/>
<path fill="none" stroke="black" d="M346,-285C346,-279 352,-273 358,-273"/>
<text text-anchor="middle" x="410" y="-344.4" font-family="Times Roman,serif" font-size="14.00">MetroStation</text>
<polyline fill="none" stroke="black" points="346,-335 474,-335 "/>
<text text-anchor="start" x="354" y="-318.4" font-family="Times Roman,serif" font-size="14.00">name :string</text>
<text text-anchor="start" x="354" y="-300.4" font-family="Times Roman,serif" font-size="14.00">url :string</text>
<text text-anchor="start" x="354" y="-282.4" font-family="Times Roman,serif" font-size="14.00">sha1_hash :string</text>
</g>
<!-- MetroStation&#45;&gt;Region -->
<g id="edge8" class="edge"><title>MetroStation&#45;&gt;Region</title>
<path fill="none" stroke="black" d="M386.524,-263.547C383.245,-256.081 379.833,-248.311 376.436,-240.577"/>
<polygon fill="black" stroke="black" points="386.653,-263.84 386.554,-274.805 388.663,-268.418 390.674,-272.996 390.674,-272.996 390.674,-272.996 388.663,-268.418 394.794,-271.186 386.653,-263.84 386.653,-263.84"/>
<polygon fill="black" stroke="black" points="376.332,-240.34 376.431,-229.374 374.321,-235.762 372.311,-231.184 372.311,-231.184 372.311,-231.184 374.321,-235.762 368.19,-232.994 376.332,-240.34 376.332,-240.34"/>
</g>
<!-- Rate -->
<g id="node5" class="node"><title>Rate</title>
<polyline fill="none" stroke="black" points="742,-116 872,-116 "/>
<path fill="none" stroke="black" d="M872,-116C878,-116 884,-122 884,-128"/>
<polyline fill="none" stroke="black" points="884,-128 884,-210 "/>
<path fill="none" stroke="black" d="M884,-210C884,-216 878,-222 872,-222"/>
<polyline fill="none" stroke="black" points="872,-222 742,-222 "/>
<path fill="none" stroke="black" d="M742,-222C736,-222 730,-216 730,-210"/>
<polyline fill="none" stroke="black" points="730,-210 730,-128 "/>
<path fill="none" stroke="black" d="M730,-128C730,-122 736,-116 742,-116"/>
<text text-anchor="middle" x="807" y="-205.4" font-family="Times Roman,serif" font-size="14.00">Rate</text>
<polyline fill="none" stroke="black" points="730,-196 884,-196 "/>
<text text-anchor="start" x="738" y="-179.4" font-family="Times Roman,serif" font-size="14.00">travel_time :integer</text>
<text text-anchor="start" x="738" y="-161.4" font-family="Times Roman,serif" font-size="14.00">pick_up_time :integer</text>
<text text-anchor="start" x="738" y="-143.4" font-family="Times Roman,serif" font-size="14.00">price_day :float</text>
<text text-anchor="start" x="738" y="-125.4" font-family="Times Roman,serif" font-size="14.00">price_night :float</text>
</g>
<!-- Route -->
<g id="node6" class="node"><title>Route</title>
<polyline fill="none" stroke="black" points="766.5,-282 847.5,-282 "/>
<path fill="none" stroke="black" d="M847.5,-282C853.5,-282 859.5,-288 859.5,-294"/>
<polyline fill="none" stroke="black" points="859.5,-294 859.5,-340 "/>
<path fill="none" stroke="black" d="M859.5,-340C859.5,-346 853.5,-352 847.5,-352"/>
<polyline fill="none" stroke="black" points="847.5,-352 766.5,-352 "/>
<path fill="none" stroke="black" d="M766.5,-352C760.5,-352 754.5,-346 754.5,-340"/>
<polyline fill="none" stroke="black" points="754.5,-340 754.5,-294 "/>
<path fill="none" stroke="black" d="M754.5,-294C754.5,-288 760.5,-282 766.5,-282"/>
<text text-anchor="middle" x="807" y="-335.4" font-family="Times Roman,serif" font-size="14.00">Route</text>
<polyline fill="none" stroke="black" points="754.5,-326 859.5,-326 "/>
<text text-anchor="start" x="762.5" y="-309.4" font-family="Times Roman,serif" font-size="14.00">path :string</text>
<text text-anchor="start" x="762.5" y="-291.4" font-family="Times Roman,serif" font-size="14.00">distance :float</text>
</g>
<!-- Route&#45;&gt;Rate -->
<g id="edge10" class="edge"><title>Route&#45;&gt;Rate</title>
<path fill="none" stroke="black" d="M807,-273.712C807,-260.706 807,-246.162 807,-232.148"/>
<ellipse fill="none" stroke="black" cx="807" cy="-277.926" rx="4" ry="4"/>
<polygon fill="black" stroke="black" points="807,-232.067 811.5,-222.067 807,-227.067 807,-222.067 807,-222.067 807,-222.067 807,-227.067 802.5,-222.067 807,-232.067 807,-232.067"/>
</g>
<!-- Region&#45;&gt;Region -->
<g id="edge14" class="edge"><title>Region&#45;&gt;Region</title>
<path fill="none" stroke="black" d="M423.762,-174.23C428.293,-172.97 431,-171.227 431,-169 431,-166.773 428.293,-165.03 423.762,-163.77"/>
<polygon fill="black" stroke="black" points="423.674,-174.245 413.047,-171.542 418.75,-175.109 413.825,-175.974 413.825,-175.974 413.825,-175.974 418.75,-175.109 414.603,-180.406 423.674,-174.245 423.674,-174.245"/>
<polygon fill="black" stroke="black" points="423.674,-163.755 414.603,-157.594 418.75,-162.891 413.825,-162.026 413.825,-162.026 413.825,-162.026 418.75,-162.891 413.047,-166.458 423.674,-163.755 423.674,-163.755"/>
<text text-anchor="middle" x="464" y="-165.4" font-family="Times Roman,serif" font-size="14.00">to_regions</text>
</g>
<!-- Region&#45;&gt;Region -->
<g id="edge18" class="edge"><title>Region&#45;&gt;Region</title>
<path fill="none" stroke="black" d="M423.708,-184.219C461.452,-185.357 497,-180.284 497,-169 497,-157.716 461.452,-152.643 423.708,-153.781"/>
<polygon fill="black" stroke="black" points="423.551,-184.212 413.762,-179.269 418.556,-183.988 413.561,-183.765 413.561,-183.765 413.561,-183.765 418.556,-183.988 413.36,-188.26 423.551,-184.212 423.551,-184.212"/>
<polygon fill="black" stroke="black" points="423.551,-153.788 413.36,-149.74 418.556,-154.012 413.561,-154.235 413.561,-154.235 413.561,-154.235 418.556,-154.012 413.762,-158.731 423.551,-153.788 423.551,-153.788"/>
<text text-anchor="middle" x="538.5" y="-165.4" font-family="Times Roman,serif" font-size="14.00">from_regions</text>
</g>
<!-- RegionLink -->
<g id="node9" class="node"><title>RegionLink</title>
<polyline fill="none" stroke="black" points="314.5,-1 375.5,-1 "/>
<path fill="none" stroke="black" d="M375.5,-1C381.5,-1 387.5,-7 387.5,-13"/>
<polyline fill="none" stroke="black" points="387.5,-13 387.5,-39 "/>
<path fill="none" stroke="black" d="M387.5,-39C387.5,-45 381.5,-51 375.5,-51"/>
<polyline fill="none" stroke="black" points="375.5,-51 314.5,-51 "/>
<path fill="none" stroke="black" d="M314.5,-51C308.5,-51 302.5,-45 302.5,-39"/>
<polyline fill="none" stroke="black" points="302.5,-39 302.5,-13 "/>
<path fill="none" stroke="black" d="M302.5,-13C302.5,-7 308.5,-1 314.5,-1"/>
<text text-anchor="middle" x="345" y="-34.4" font-family="Times Roman,serif" font-size="14.00">RegionLink</text>
<polyline fill="none" stroke="black" points="302.5,-25 387.5,-25 "/>
</g>
<!-- Region&#45;&gt;RegionLink -->
<g id="edge12" class="edge"><title>Region&#45;&gt;RegionLink</title>
<path fill="none" stroke="black" d="M289.403,-99.13C287.723,-95.4674 286.237,-91.7496 285,-88 282.493,-80.403 281.384,-77.1361 285,-70 287.555,-64.9589 290.988,-60.3558 294.926,-56.1882"/>
<ellipse fill="none" stroke="black" cx="291.323" cy="-102.983" rx="4.00002" ry="4.00002"/>
<polygon fill="black" stroke="black" points="295.159,-55.971 305.544,-52.4495 298.819,-52.5636 302.478,-49.1562 302.478,-49.1562 302.478,-49.1562 298.819,-52.5636 299.411,-45.8629 295.159,-55.971 295.159,-55.971"/>
<text text-anchor="middle" x="335" y="-75.4" font-family="Times Roman,serif" font-size="14.00">to_regions_links</text>
</g>
<!-- Region&#45;&gt;RegionLink -->
<g id="edge16" class="edge"><title>Region&#45;&gt;RegionLink</title>
<path fill="none" stroke="black" d="M387.163,-98.746C388.916,-89.1055 388.603,-79.3205 385,-70 383.575,-66.3139 381.682,-62.7463 379.492,-59.3442"/>
<ellipse fill="none" stroke="black" cx="386.165" cy="-102.907" rx="4.00001" ry="4.00001"/>
<polygon fill="black" stroke="black" points="379.465,-59.3081 377.16,-48.5872 376.501,-55.2816 373.537,-51.2551 373.537,-51.2551 373.537,-51.2551 376.501,-55.2816 369.913,-53.9231 379.465,-59.3081 379.465,-59.3081"/>
<text text-anchor="middle" x="448" y="-75.4" font-family="Times Roman,serif" font-size="14.00">from_regions_links</text>
</g>
</g>
</svg>
